<svg width="30" height="30" viewBox="0 0 30 30" fill="none" xmlns="http://www.w3.org/2000/svg">
<g clip-path="url(#clip0_239_1597)">
<path d="M15.0001 5.9375C17.2126 5.9375 19.1938 6.7 20.7563 8.1875L25.0376 3.90625C22.4376 1.4875 19.0438 0 15.0001 0C9.1376 0 4.06885 3.3625 1.6001 8.2625L6.5876 12.1313C7.76885 8.575 11.0876 5.9375 15.0001 5.9375Z" fill="#EA4335"/>
<path d="M29.3625 15.3437C29.3625 14.3625 29.2687 13.4125 29.125 12.5H15V18.1375H23.0875C22.725 19.9875 21.675 21.5625 20.1 22.625L24.9312 26.375C27.75 23.7625 29.3625 19.9 29.3625 15.3437Z" fill="#4285F4"/>
<path d="M6.58125 17.8689C6.28125 16.9627 6.10625 16.0002 6.10625 15.0002C6.10625 14.0002 6.275 13.0377 6.58125 12.1314L1.59375 8.2627C0.575 10.2877 0 12.5752 0 15.0002C0 17.4252 0.575 19.7127 1.6 21.7377L6.58125 17.8689Z" fill="#FBBC05"/>
<path d="M15 29.9998C19.05 29.9998 22.4562 28.6686 24.9312 26.3686L20.1 22.6186C18.7563 23.5248 17.025 24.0561 15 24.0561C11.0875 24.0561 7.76875 21.4186 6.58125 17.8623L1.59375 21.7311C4.06875 26.6373 9.1375 29.9998 15 29.9998Z" fill="#34A853"/>
</g>
<defs>
<clipPath id="clip0_239_1597">
<rect width="30" height="30" fill="white"/>
</clipPath>
</defs>
</svg>
